Coordinates
version=1
nRows=19
nColumns=33
inDegrees=yes

Units are S.I. units (second, meters, Newtons, ...)
Angles are in degrees.

endheader
time	ground_thorax_rot_x	ground_thorax_rot_y	ground_thorax_rot_z	ground_thorax_tx	ground_thorax_ty	ground_thorax_tz	clav_prot_r	clav_elev_r	scapula_abduction_r	scapula_elevation_r	scapula_upward_rot_r	scapula_winging_r	shoulder_elv_r	plane_of_elev_r	axial_rot_r	elbow_flexion_r	pro_sup_r	wrist_flex_r	wrist_dev_r	clav_prot_l	clav_elev_l	scapula_abduction_l	scapula_elevation_l	scapula_upward_rot_l	scapula_winging_l	shoulder_elv_l	plane_of_elev_l	axial_rot_l	elbow_flexion_l	pro_sup_l	wrist_flex_l	wrist_dev_l	
5.6900	-30.470672	-26.650799	38.873362	-65.084322	781.707854	4.070301	9.932490	-45.000000	39.901186	-45.000000	-44.996315	-3335.657691	-2811.566794	30.540945	55.794109	1810.455932	30.826279	17.473412	12.994375	15.601241	38.218802	-35.709860	-45.000000	-44.999936	1158.244773	-3173.647758	25.519934	-8.511121	723.732453	32.389022	12.250144	-20.102822	
5.7000	-30.919661	-26.145371	38.290400	-68.046136	783.497764	3.907067	9.793570	-45.000000	39.919809	-45.000000	-44.993397	-3335.738424	-2811.105753	30.814192	54.723181	1810.709620	30.945140	17.667254	12.609856	15.751914	38.394899	-36.101343	-45.000000	-44.999885	1158.672643	-3173.385545	25.625784	-8.531312	724.171977	32.098820	12.083436	-20.248574	
5.7100	-31.388808	-25.607963	37.667398	-71.114974	785.341365	3.750132	9.639413	-45.000000	39.923489	-45.000000	-44.988177	-3335.819788	-2810.628539	31.102110	53.628196	1810.953087	31.117896	17.870633	12.203839	15.908746	38.577900	-36.506152	-45.000000	-44.999795	1159.107788	-3173.116549	25.757508	-8.538070	724.601903	31.800136	11.929525	-20.395193	
5.7200	-31.827494	-25.098938	37.067132	-74.416107	787.300004	3.602987	9.575875	-45.000000	39.978244	-45.000000	-44.978806	-3335.958144	-2810.155470	31.404434	52.564624	1811.208231	31.429724	18.048437	11.798826	16.027501	38.660831	-36.861369	-45.000000	-44.999632	1159.539944	-3172.810169	25.883066	-8.394213	724.996725	31.438063	11.759926	-20.520800	
5.7300	-32.264502	-24.581750	36.443325	-77.963807	789.379116	3.469542	9.555572	-45.000000	40.058077	-45.000000	-44.962081	-3336.132668	-2809.672019	31.720874	51.507627	1811.471761	31.872404	18.218407	11.378461	16.124158	38.697883	-37.197912	-45.000000	-44.999341	1159.975273	-3172.473975	26.011141	-8.170726	725.366817	31.020913	11.587496	-20.633262	
5.7400	-32.701014	-24.052583	35.789115	-81.787408	791.589307	3.353475	9.569757	-45.000000	40.159706	-45.000000	-44.931951	-3336.343010	-2809.176310	32.047677	50.460017	1811.742392	32.454869	18.383294	10.939566	16.200363	38.692895	-37.515939	-45.000000	-44.998820	1160.413617	-3172.108227	26.136331	-7.892688	725.709257	30.532841	11.417131	-20.731713	
5.7500	-33.137416	-23.505664	35.100309	-85.884138	793.922697	3.257769	9.598863	-45.000000	40.280104	-45.000000	-44.878453	-3336.584409	-2808.665578	32.371621	49.431707	1812.021332	33.171936	18.549614	10.478055	16.257317	38.666041	-37.815514	-45.000000	-44.997887	1160.851117	-3171.718297	26.255272	-7.601047	726.020958	29.955018	11.263862	-20.818159	
5.7600	-33.579465	-22.930541	34.363975	-90.234906	796.360888	3.184586	9.624082	-45.000000	40.409646	-45.000000	-44.781301	-3336.846607	-2808.142734	32.681208	48.428881	1812.300704	34.004935	18.718660	9.991890	16.296915	38.640797	-38.103943	-45.000000	-44.996213	1161.289503	-3171.315634	26.366108	-7.339987	726.303644	29.266275	11.138971	-20.894771	
5.7700	-34.022113	-22.329617	33.583451	-94.817728	798.882354	3.135460	9.646547	-45.000000	40.556123	-45.000000	-44.610963	-3337.128975	-2807.619829	32.955941	47.470817	1812.580782	34.936864	18.884221	9.488476	16.311607	38.624568	-38.377985	-45.000000	-44.993224	1161.725635	-3170.908096	26.462193	-7.108668	726.553334	28.435409	11.052206	-20.960405	
5.7800	-34.474647	-21.683390	32.736737	-99.608112	801.464117	3.111819	9.659252	-45.000000	40.714643	-45.000000	-44.295545	-3337.432257	-2807.117222	33.184556	46.590647	1812.845267	35.934897	19.044110	8.992471	16.318814	38.605005	-38.652015	-45.000000	-44.987840	1162.161167	-3170.508279	26.543499	-6.935725	726.777450	27.459281	10.983761	-21.010105	
5.7900	-34.931210	-21.000378	31.836669	-104.579712	804.083484	3.115280	9.666014	-45.000000	40.880207	-45.000000	-43.877068	-3337.747406	-2806.634882	33.365974	45.793031	1813.094466	36.967346	19.184382	8.496928	16.303252	38.601763	-38.917294	-45.000000	-44.978281	1162.594549	-3170.123626	26.615017	-6.790222	726.968207	26.326290	10.955955	-21.049296	
5.8000	-35.397903	-20.271639	30.872384	-109.705940	806.719796	3.147186	9.659812	-45.000000	41.040891	-45.000000	-43.349703	-3338.069577	-2806.181540	33.506930	45.111375	1813.320682	37.991887	19.301842	8.022543	16.284851	38.611176	-39.181698	-45.000000	-44.960917	1163.026667	-3169.763217	26.674574	-6.713349	727.134101	25.069886	10.939406	-21.075535	
5.8100	-35.859208	-19.524855	29.881477	-114.960394	809.355274	3.208432	9.648722	-45.000000	41.187388	-45.000000	-42.813903	-3338.388133	-2805.750118	33.618098	44.550242	1813.529450	38.977696	19.380215	7.557076	16.248084	38.643600	-39.425219	-45.000000	-44.930489	1163.455565	-3169.430364	26.721609	-6.664645	727.267241	23.706392	10.957155	-21.097292	
5.8200	-36.310787	-18.762008	28.872834	-120.319169	811.976121	3.298350	9.631985	-45.000000	41.313577	-45.000000	-42.278990	-3338.706549	-2805.346751	33.706091	44.153440	1813.720145	39.894651	19.419821	7.123691	16.214265	38.671456	-39.644306	-45.000000	-44.874095	1163.872760	-3169.128986	26.747094	-6.665542	727.374317	22.289879	10.980994	-21.112374	
5.8300	-36.733094	-18.014214	27.891008	-125.758549	814.571204	3.416408	9.617315	-45.000000	41.413527	-45.000000	-41.840956	-3339.019389	-2804.960807	33.780842	43.934327	1813.901129	40.727593	19.410367	6.706157	16.164324	38.703187	-39.812068	-45.000000	-44.778352	1164.275073	-3168.859889	26.748352	-6.695976	727.450641	20.860965	11.028725	-21.132461	
5.8400	-37.127184	-17.279020	26.933453	-131.254105	817.130902	3.563784	9.603917	-45.000000	41.487785	-45.000000	-41.493330	-3339.327216	-2804.594014	33.842520	43.908518	1814.077116	41.457597	19.358543	6.323999	16.115141	38.727178	-39.937866	-45.000000	-44.655871	1164.655618	-3168.619388	26.716770	-6.781279	727.506144	19.480480	11.071869	-21.155422	
5.8500	-37.491306	-16.558298	26.010324	-136.776130	819.644205	3.746914	9.584405	-45.000000	41.537473	-45.000000	-41.204038	-3339.633517	-2804.253028	33.883398	44.091855	1814.245321	42.080623	19.280194	5.991137	16.068973	38.737362	-40.032007	-45.000000	-44.516727	1165.024810	-3168.411290	26.648503	-6.976118	727.560220	18.214315	11.088057	-21.190997	
5.8600	-37.824901	-15.851452	25.121785	-142.292015	822.099004	3.975508	9.571979	-45.000000	41.563780	-45.000000	-41.012094	-3339.933680	-2803.933810	33.911766	44.407410	1814.400167	42.591417	19.175746	5.710639	16.026478	38.732369	-40.101402	-45.000000	-44.404517	1165.366748	-3168.221154	26.556046	-7.207352	727.604443	17.080481	11.091294	-21.234770	
5.8700	-38.121553	-15.162978	24.286621	-147.766494	824.481462	4.261204	9.557357	-45.000000	41.569671	-45.000000	-40.879220	-3340.235343	-2803.645975	33.924699	44.854792	1814.524909	43.012397	19.068495	5.495712	15.990879	38.703266	-40.152614	-45.000000	-44.327854	1165.697021	-3168.057651	26.442632	-7.554590	727.649190	16.130457	11.055686	-21.293821	
